<?xml version="1.0" standalone="no"?><!DOCTYPE svg PUBLIC "-//W3C//DTD SVG 1.1//EN" "http://www.w3.org/Graphics/SVG/1.1/DTD/svg11.dtd"><svg class="icon" width="128px" height="128.00px" viewBox="0 0 1024 1024" version="1.1" xmlns="http://www.w3.org/2000/svg"><path fill="#333333" d="M136.533333 0h204.8c75.093333 0 136.533333 61.44 136.533334 136.533333v204.8c0 75.093333-61.44 136.533333-136.533334 136.533334H136.533333C61.44 477.866667 0 416.426667 0 341.333333V136.533333C0 61.44 61.44 0 136.533333 0z m0 68.266667c-40.96 0-68.266667 27.306667-68.266666 68.266666v204.8c0 40.96 27.306667 68.266667 68.266666 68.266667h204.8c40.96 0 68.266667-27.306667 68.266667-68.266667V136.533333c0-40.96-27.306667-68.266667-68.266667-68.266666H136.533333zM136.533333 546.133333h204.8c75.093333 0 136.533333 61.44 136.533334 136.533334v204.8c0 75.093333-61.44 136.533333-136.533334 136.533333H136.533333c-75.093333 0-136.533333-61.44-136.533333-136.533333v-204.8c0-75.093333 61.44-136.533333 136.533333-136.533334z m0 68.266667c-40.96 0-68.266667 27.306667-68.266666 68.266667v204.8c0 40.96 27.306667 68.266667 68.266666 68.266666h204.8c40.96 0 68.266667-27.306667 68.266667-68.266666v-204.8c0-40.96-27.306667-68.266667-68.266667-68.266667H136.533333zM682.666667 0h204.8c75.093333 0 136.533333 61.44 136.533333 136.533333v204.8c0 75.093333-61.44 136.533333-136.533333 136.533334h-204.8c-75.093333 0-136.533333-61.44-136.533334-136.533334V136.533333c0-75.093333 61.44-136.533333 136.533334-136.533333z m0 68.266667c-40.96 0-68.266667 27.306667-68.266667 68.266666v204.8c0 40.96 27.306667 68.266667 68.266667 68.266667h204.8c40.96 0 68.266667-27.306667 68.266666-68.266667V136.533333c0-40.96-27.306667-68.266667-68.266666-68.266666h-204.8zM682.666667 546.133333h204.8c75.093333 0 136.533333 61.44 136.533333 136.533334v204.8c0 75.093333-61.44 136.533333-136.533333 136.533333h-204.8c-75.093333 0-136.533333-61.44-136.533334-136.533333v-204.8c0-75.093333 61.44-136.533333 136.533334-136.533334z m0 68.266667c-40.96 0-68.266667 27.306667-68.266667 68.266667v204.8c0 40.96 27.306667 68.266667 68.266667 68.266666h204.8c40.96 0 68.266667-27.306667 68.266666-68.266666v-204.8c0-40.96-27.306667-68.266667-68.266666-68.266667h-204.8z" /></svg>