<?xml version="1.0" standalone="no"?><!DOCTYPE svg PUBLIC "-//W3C//DTD SVG 1.1//EN" "http://www.w3.org/Graphics/SVG/1.1/DTD/svg11.dtd"><svg class="icon" width="128px" height="128.00px" viewBox="0 0 1024 1024" version="1.1" xmlns="http://www.w3.org/2000/svg"><path fill="#333333" d="M523.776 430.592l-153.088 88.576 153.088 88.576 152.576-88.576-152.576-88.576z m-165.888 108.544l0.512 177.152 153.6 87.552-1.024-176.64-153.088-88.064z m330.24 0l-153.6 87.552-1.024 176.64 153.6-87.552 1.024-176.64z m131.072 205.824l-68.096-40.96 39.936-8.704-5.632-26.112-67.072 14.848-13.824 23.04 101.376 60.928 13.312-23.04z m-142.848 7.68l68.096 40.96-39.936 8.704 5.632 26.112 67.072-14.848 13.824-23.04-101.888-60.928-12.8 23.04zM481.28 424.96h26.624V306.176H481.28v79.36l-27.648-29.696-19.456 18.432L481.28 424.96z m53.76-118.784V424.96h26.624V345.088l27.648 29.696 19.456-18.432-47.104-50.176h-26.624z m-190.464 401.92l-13.312-23.04-68.608 40.448 11.264-38.912-25.6-7.168-18.944 66.048 13.312 23.04 101.888-60.416z m-89.088 82.944l13.312 23.04 68.608-39.936-11.264 38.912 25.6 7.168 19.456-66.048-13.312-23.04-102.4 59.904z m622.08-45.056c-45.568 0-82.432 36.864-82.432 82.432 0 45.568 36.864 82.432 82.432 82.432 45.568 0 82.432-36.864 82.432-82.432 0-45.568-36.864-82.432-82.432-82.432z m0 122.88c-22.528 0-40.448-17.92-40.448-40.448s17.92-40.448 40.448-40.448 40.448 17.92 40.448 40.448-17.92 40.448-40.448 40.448zM521.728 292.864c45.568 0 82.432-36.864 82.432-82.432 0-45.568-36.864-82.432-82.432-82.432-45.568 0-82.432 36.864-82.432 82.432 0 45.568 36.864 82.432 82.432 82.432z m0-122.88c22.528 0 40.448 17.92 40.448 40.448s-17.92 40.448-40.448 40.448-40.448-17.92-40.448-40.448 18.432-40.448 40.448-40.448zM167.936 749.056c-45.568 0-82.432 36.864-82.432 82.432 0 45.568 36.864 82.432 82.432 82.432 45.568 0 82.432-36.864 82.432-82.432 0-45.568-36.864-82.432-82.432-82.432z m0 122.88c-22.528 0-40.448-17.92-40.448-40.448s17.92-40.448 40.448-40.448 40.448 17.92 40.448 40.448-18.432 40.448-40.448 40.448z"  /></svg>