<?xml version="1.0" standalone="no"?><!DOCTYPE svg PUBLIC "-//W3C//DTD SVG 1.1//EN" "http://www.w3.org/Graphics/SVG/1.1/DTD/svg11.dtd"><svg class="icon" width="128px" height="128.00px" viewBox="0 0 1024 1024" version="1.1" xmlns="http://www.w3.org/2000/svg"><path fill="#333333" d="M740.8 500.8H262.4l158.4-158.4H512c8 28.8 35.2 49.6 65.6 49.6 38.4 0 70.4-32 70.4-70.4s-32-70.4-70.4-70.4c-32 0-57.6 20.8-65.6 49.6h-107.2L206.4 500.8H156.8v40h148.8l182.4 182.4H576v49.6h139.2v-139.2H576v49.6h-70.4l-142.4-142.4h379.2v75.2l168-94.4-168-94.4v73.6z m-161.6-208c16 0 30.4 12.8 30.4 30.4s-14.4 28.8-30.4 28.8-30.4-12.8-30.4-30.4 14.4-28.8 30.4-28.8z m36.8 380.8h59.2v59.2h-59.2v-59.2z m164.8-179.2l46.4 27.2-46.4 27.2v-54.4z"  /></svg>