<?xml version="1.0" standalone="no"?><!DOCTYPE svg PUBLIC "-//W3C//DTD SVG 1.1//EN" "http://www.w3.org/Graphics/SVG/1.1/DTD/svg11.dtd"><svg class="icon" width="128px" height="128.00px" viewBox="0 0 1024 1024" version="1.1" xmlns="http://www.w3.org/2000/svg"><path fill="#333333" d="M832 64c35.3456 0 64 28.6544 64 64v768c0 35.3456-28.6544 64-64 64H192c-35.3456 0-64-28.6544-64-64V128c0-35.3456 28.6544-64 64-64h640z m0 48H192c-8.8368 0-16 7.1632-16 16v768c0 8.8368 7.1632 16 16 16h640c8.8368 0 16-7.1632 16-16V128c0-8.8368-7.1632-16-16-16z m-152 592c13.2544 0 24 10.7456 24 24 0 13.2544-10.7456 24-24 24H344c-13.2544 0-24-10.7456-24-24 0-13.2544 10.7456-24 24-24h336z m0-160c13.2544 0 24 10.7456 24 24 0 13.2544-10.7456 24-24 24H344c-13.2544 0-24-10.7456-24-24 0-13.2544 10.7456-24 24-24h336z m0-144c13.2544 0 24 10.7456 24 24 0 13.2544-10.7456 24-24 24H344c-13.2544 0-24-10.7456-24-24 0-13.2544 10.7456-24 24-24h336z m-192-144c13.2544 0 24 10.7456 24 24 0 13.2544-10.7456 24-24 24h-144c-13.2544 0-24-10.7456-24-24 0-13.2544 10.7456-24 24-24h144z"  /></svg>