<?xml version="1.0" standalone="no"?><!DOCTYPE svg PUBLIC "-//W3C//DTD SVG 1.1//EN" "http://www.w3.org/Graphics/SVG/1.1/DTD/svg11.dtd"><svg class="icon" width="128px" height="128.00px" viewBox="0 0 1024 1024" version="1.1" xmlns="http://www.w3.org/2000/svg"><path fill="#333333" d="M384 268.8c0-17.066667 0-25.6 4.266667-29.866667 4.266667-8.533333 8.533333-12.8 17.066666-17.066666 8.533333-8.533333 12.8-8.533333 34.133334-8.533334 17.066667-25.6 42.666667-42.666667 72.533333-42.666666s59.733333 17.066667 72.533333 42.666666c17.066667 0 25.6 0 34.133334 4.266667 8.533333 4.266667 12.8 8.533333 17.066666 17.066667 4.266667 8.533333 4.266667 12.8 4.266667 34.133333l-8.533333-12.8H682.666667c46.933333 0 85.333333 38.4 85.333333 85.333333v256c0 12.8-8.533333 21.333333-21.333333 21.333334s-21.333333-8.533333-21.333334-21.333334V341.333333c0-25.6-17.066667-42.666667-42.666666-42.666666h-59.733334l17.066667-12.8c0 17.066667 0 25.6-4.266667 29.866666-4.266667 8.533333-8.533333 12.8-17.066666 17.066667-8.533333 8.533333-12.8 8.533333-34.133334 8.533333h-149.333333c-17.066667 0-21.333333 0-29.866667-4.266666-8.533333-4.266667-12.8-8.533333-17.066666-17.066667-4.266667-8.533333-4.266667-12.8-4.266667-34.133333l17.066667 12.8H341.333333c-25.6 0-42.666667 17.066667-42.666666 42.666666v426.666667c0 25.6 17.066667 42.666667 42.666666 42.666667h341.333334c25.6 0 42.666667-17.066667 42.666666-42.666667v-42.666667c0-12.8 8.533333-21.333333 21.333334-21.333333s21.333333 8.533333 21.333333 21.333333v42.666667c0 46.933333-38.4 85.333333-85.333333 85.333333H341.333333c-46.933333 0-85.333333-38.4-85.333333-85.333333V341.333333c0-46.933333 38.4-85.333333 85.333333-85.333333h51.2l-8.533333 12.8z m42.666667 0v8.533333c0 12.8 8.533333 21.333333 21.333333 21.333334h128c12.8 0 21.333333-8.533333 21.333333-21.333334v-8.533333V256h-8.533333c-17.066667 0-29.866667-8.533333-38.4-21.333333-8.533333-12.8-21.333333-21.333333-38.4-21.333334s-29.866667 8.533333-38.4 21.333334c-4.266667 12.8-21.333333 21.333333-34.133333 21.333333H426.666667v12.8zM618.666667 469.333333h-213.333334c-12.8 0-21.333333-8.533333-21.333333-21.333333s8.533333-21.333333 21.333333-21.333333h213.333334c12.8 0 21.333333 8.533333 21.333333 21.333333s-8.533333 21.333333-21.333333 21.333333zM618.666667 597.333333h-213.333334c-12.8 0-21.333333-8.533333-21.333333-21.333333s8.533333-21.333333 21.333333-21.333333h213.333334c12.8 0 21.333333 8.533333 21.333333 21.333333s-8.533333 21.333333-21.333333 21.333333zM618.666667 725.333333h-213.333334c-12.8 0-21.333333-8.533333-21.333333-21.333333s8.533333-21.333333 21.333333-21.333333h213.333334c12.8 0 21.333333 8.533333 21.333333 21.333333s-8.533333 21.333333-21.333333 21.333333z" /></svg>