<?xml version="1.0" standalone="no"?><!DOCTYPE svg PUBLIC "-//W3C//DTD SVG 1.1//EN" "http://www.w3.org/Graphics/SVG/1.1/DTD/svg11.dtd"><svg class="icon" width="128px" height="107.44px" viewBox="0 0 1220 1024" version="1.1" xmlns="http://www.w3.org/2000/svg"><path fill="#333333" d="M823.532308 1024H397.390769a19.692308 19.692308 0 0 1 0-39.384615h426.141539a19.692308 19.692308 0 0 1 0 39.384615zM1122.461538 905.846154h-1024A98.461538 98.461538 0 0 1 0 807.384615v-708.923077A98.461538 98.461538 0 0 1 98.461538 0h1024A98.461538 98.461538 0 0 1 1220.923077 98.461538v708.923077a98.461538 98.461538 0 0 1-98.461539 98.461539zM98.461538 39.384615A59.076923 59.076923 0 0 0 39.384615 98.461538v708.923077A59.076923 59.076923 0 0 0 98.461538 866.461538h1024a59.076923 59.076923 0 0 0 59.076924-59.076923v-708.923077A59.076923 59.076923 0 0 0 1122.461538 39.384615z" /></svg>