<?xml version="1.0" standalone="no"?><!DOCTYPE svg PUBLIC "-//W3C//DTD SVG 1.1//EN" "http://www.w3.org/Graphics/SVG/1.1/DTD/svg11.dtd"><svg class="icon" width="128px" height="128.00px" viewBox="0 0 1024 1024" version="1.1" xmlns="http://www.w3.org/2000/svg"><path d="M938.354 610.58H85.678V128.3H128.3V64.35h255.8l42.638 63.95h511.616z" fill="#F6BB42" /><path d="M980.978 674.53H43.04V192.25h42.638V128.3h255.798l42.624 63.95h596.878z" fill="#FFCE54" /><path d="M0.4 277.496h1023.2v682.154H0.4z" fill="#656D78" /><path d="M661.226 554.624c-23.514 0-42.624 19.14-42.624 42.624v21.326H405.428v-21.326c0-23.482-19.126-42.624-42.638-42.624-23.498 0-42.638 19.14-42.638 42.624v63.95c0 23.514 19.14 42.654 42.638 42.654h298.438c23.514 0 42.624-19.14 42.624-42.654v-63.95c-0.002-23.484-19.112-42.624-42.626-42.624z" fill="#F5F7FA" /></svg>