<?xml version="1.0" standalone="no"?><!DOCTYPE svg PUBLIC "-//W3C//DTD SVG 1.1//EN" "http://www.w3.org/Graphics/SVG/1.1/DTD/svg11.dtd"><svg class="icon" width="128px" height="128.00px" viewBox="0 0 1024 1024" version="1.1" xmlns="http://www.w3.org/2000/svg"><path fill="#333333" d="M958.976 977.408H70.656S0 988.16 0 893.952V131.584S1.536 46.592 88.064 46.592H399.36s37.888-7.68 69.12 40.96c29.696 47.104 47.104 76.8 47.104 76.8s10.752 12.8 36.352 12.8h400.896s70.656-7.68 70.656 70.656v650.752s10.752 78.848-64.512 78.848zM892.928 379.904c0-18.944-15.872-34.816-34.816-34.816H166.4c-20.48 0-36.352 15.872-36.352 34.816v3.072c0 20.48 15.872 36.352 36.352 36.352h691.712c18.944 0 34.816-15.872 34.816-36.352z" /></svg>