<?xml version="1.0" standalone="no"?><!DOCTYPE svg PUBLIC "-//W3C//DTD SVG 1.1//EN" "http://www.w3.org/Graphics/SVG/1.1/DTD/svg11.dtd"><svg class="icon" width="128px" height="128.00px" viewBox="0 0 1024 1024" version="1.1" xmlns="http://www.w3.org/2000/svg"><path fill="#333333" d="M824.32 874.24H223.36c-64 0-115.84-51.84-115.84-115.84V314.24c0-64 51.84-115.84 115.84-115.84h600.96c64 0 115.84 51.84 115.84 115.84v444.16c-0.64 63.36-52.48 115.84-115.84 115.84zM223.36 262.4c-28.8 0-51.84 23.04-51.84 51.84v444.16c0 28.8 23.04 51.84 51.84 51.84h600.96c28.8 0 51.84-23.04 51.84-51.84V314.24c0-28.8-23.04-51.84-51.84-51.84H223.36z"  /><path fill="#333333" d="M416 593.28H307.84c-48 0-86.4-39.04-86.4-86.4v-108.8c0-48 39.04-86.4 86.4-86.4H416c48 0 86.4 39.04 86.4 86.4v108.16c0 48-38.4 87.04-86.4 87.04z m-108.16-217.6c-12.8 0-22.4 10.24-22.4 22.4v108.16c0 12.8 10.24 22.4 22.4 22.4H416c12.8 0 22.4-10.24 22.4-22.4V398.08c0-12.8-10.24-22.4-22.4-22.4H307.84zM773.12 498.56h-172.8c-17.92 0-32-14.08-32-32s14.08-32 32-32h172.16c17.92 0 32 14.08 32 32s-14.08 32-31.36 32zM793.6 737.28H259.2c-17.92 0-32-14.08-32-32s14.08-32 32-32H793.6c17.92 0 32 14.08 32 32s-14.72 32-32 32z"  /></svg>