<?xml version="1.0" standalone="no"?><!DOCTYPE svg PUBLIC "-//W3C//DTD SVG 1.1//EN" "http://www.w3.org/Graphics/SVG/1.1/DTD/svg11.dtd"><svg class="icon" width="128px" height="128.00px" viewBox="0 0 1024 1024" version="1.1" xmlns="http://www.w3.org/2000/svg"><path fill="#333333" d="M874.026 855.181L654.784 599.01c16.283-10.382 31.553-22.614 45.538-36.599 50.302-50.304 78.005-117.185 78.005-188.324 0-71.138-27.703-138.018-78.006-188.321-50.302-50.302-117.182-78.005-188.318-78.005-71.139 0-138.021 27.703-188.323 78.005-50.304 50.303-78.007 117.183-78.007 188.321 0 71.139 27.703 138.021 78.007 188.324 15.065 15.065 31.626 28.086 49.334 38.961L150.291 854.815a37.002 37.002 0 0 0 27.793 61.424h667.832a37 37 0 0 0 28.11-61.058zM549 732.37c0 20.435-16.565 37-37 37s-37-16.565-37-37v-99.304h74v99.304z" /></svg>