<?xml version="1.0" standalone="no"?><!DOCTYPE svg PUBLIC "-//W3C//DTD SVG 1.1//EN" "http://www.w3.org/Graphics/SVG/1.1/DTD/svg11.dtd"><svg class="icon" width="128px" height="128.00px" viewBox="0 0 1024 1024" version="1.1" xmlns="http://www.w3.org/2000/svg"><path fill="#333333" d="M642.465374 52.211681c6.510503 0 19.531509 6.510503 19.531509 19.563423v169.624136c0 6.542417-6.478589 19.563423-19.531509 19.563423h-254.45216c-6.510503-6.510503-13.05292-13.05292-13.05292-26.073926V65.264601c0-6.574331 6.542417-19.563423 19.595338-19.563423h247.909742v6.510503z m0-52.211681h-254.45216c-39.158761 0-65.232687 32.584429-65.232687 65.264601v169.592221c0 32.584429 26.073926 65.264601 65.232687 65.264602h254.45216c39.126847 0 65.200773-32.680172 65.200773-65.264602V65.264601c0-32.648258-26.105841-65.264601-65.200773-65.264601M224.931497 815.440504v163.17746H61.817864v-163.17746h163.113633z m19.595337-52.179767H48.764944c-19.563423 0-32.584429 12.989092-32.584429 32.584429v195.76189c0 19.595338 13.05292 32.648258 32.584429 32.648258h195.729976c19.563423 0 32.584429-13.05292 32.584429-32.648258V795.845166c0.031914-19.595338-19.563423-32.584429-32.552515-32.584429m345.663031 52.179767v163.17746h-163.049804v-163.17746h163.049804z m13.116748-52.179767h-195.729975c-19.563423 0-32.584429 12.989092-32.58443 32.584429v195.76189c0 19.595338 13.05292 32.648258 32.58443 32.648258h195.729975c19.563423 0 32.584429-13.05292 32.58443-32.648258V795.845166c0.031914-19.595338-12.989092-32.584429-32.58443-32.584429m358.811694 52.179767v163.17746h-163.081718v-163.17746h163.081718z m13.084835-52.179767h-195.793805c-19.563423 0-32.552515 12.989092-32.552515 32.584429v195.76189c0 19.595338 12.957178 32.648258 32.552515 32.648258h195.793805c19.531509 0 32.584429-13.05292 32.584429-32.648258V795.845166c0-19.595338-13.05292-32.584429-32.584429-32.584429m-469.777473-417.438135c-13.05292 0-19.531509 6.446675-19.53151 19.563423v326.163436c0 12.989092 6.478589 19.531509 19.53151 19.531509s19.563423-6.542417 19.563423-19.531509v-326.163436c6.542417-13.116749-6.510503-19.563423-19.563423-19.563423M857.726859 456.660724H140.1673c-13.084835 0-19.595338 13.021006-19.595337 19.563424 0 6.606246 6.510503 26.169669 19.595337 26.169669h717.559559c13.021006 0 19.531509-13.05292 19.531509-19.563424 0-6.606246-6.510503-26.169669-19.531509-26.169669zM140.1673 456.660724c-13.084835 0-19.595338 13.021006-19.595337 19.563424v182.740883c0 13.05292 13.05292 19.531509 19.595337 19.53151 6.478589 0 19.563423-13.05292 19.563424-19.53151v-176.134638c-0.031914-13.148663-6.574331-26.169669-19.563424-26.169669zM857.726859 456.660724c-13.05292 0-19.563423 13.021006-19.563423 19.563424v182.740883c0 13.05292 13.05292 19.531509 19.563423 19.53151s19.531509-13.05292 19.531509-19.53151v-176.134638c0-13.148663-6.510503-26.169669-19.531509-26.169669z" /></svg>