<?xml version="1.0" standalone="no"?><!DOCTYPE svg PUBLIC "-//W3C//DTD SVG 1.1//EN" "http://www.w3.org/Graphics/SVG/1.1/DTD/svg11.dtd"><svg class="icon" width="128px" height="128.00px" viewBox="0 0 1024 1024" version="1.1" xmlns="http://www.w3.org/2000/svg"><path fill="#333333" d="M960 832v42.667h-46.933c-4.267 12.8-8.534 25.6-17.067 38.4l34.133 34.133-29.866 29.867-34.134-34.134c-12.8 8.534-21.333 12.8-34.133 12.8v46.934h-42.667v-46.934c-12.8-4.266-25.6-8.533-38.4-17.066L716.8 972.8l-29.867-29.867 34.134-34.133c-8.534-12.8-12.8-25.6-12.8-38.4h-46.934v-42.667h46.934c4.266-12.8 8.533-25.6 17.066-38.4L691.2 755.2l29.867-29.867 34.133 34.134c12.8-8.534 21.333-12.8 38.4-17.067v-46.933h42.667V742.4c12.8 4.267 25.6 8.533 38.4 17.067l29.866-29.867 29.867 29.867-34.133 34.133c8.533 12.8 12.8 25.6 12.8 38.4H960z m-89.6-8.533L840.533 793.6c-4.266 0-8.533-4.267-8.533-4.267v4.267h-42.667v-4.267c-4.266 0-8.533 4.267-12.8 4.267l-29.866 29.867c0 4.266-4.267 8.533-4.267 12.8h4.267v42.666c0 4.267 4.266 8.534 4.266 8.534l29.867 29.866c4.267 0 4.267 4.267 8.533 4.267H832c4.267 0 8.533-4.267 8.533-4.267l29.867-29.866c0-4.267 4.267-4.267 4.267-8.534v-42.666c0-8.534 0-12.8-4.267-12.8z m-187.733-192l64 21.333c-128 76.8-128 157.867-128 264.533H64V806.4c0-89.6 72.533-110.933 72.533-110.933l200.534-64 64-34.134V524.8s-51.2-21.333-51.2-81.067h-8.534c-34.133-8.533-64-59.733-68.266-98.133 0-38.4 29.866-38.4 29.866-38.4l25.6 8.533s-12.8-34.133-12.8-128c0-42.666 12.8-64 38.4-81.066 0 0-38.4-81.067 157.867-85.334 187.733 0 187.733 157.867 187.733 157.867v55.467l-4.266 72.533h29.866c21.334 0 21.334 42.667 21.334 42.667s-25.6 89.6-64 93.866h-8.534c-8.533 46.934-55.466 81.067-55.466 81.067v72.533l64 34.134z" /></svg>