<?xml version="1.0" standalone="no"?><!DOCTYPE svg PUBLIC "-//W3C//DTD SVG 1.1//EN" "http://www.w3.org/Graphics/SVG/1.1/DTD/svg11.dtd"><svg class="icon" width="128px" height="120.47px" viewBox="0 0 1088 1024" version="1.1" xmlns="http://www.w3.org/2000/svg"><path fill="#333333" d="M896 576h-288v384a64 64 0 0 1-64 64h-160a64 64 0 0 1-64-64V576H64a64 64 0 0 1-64-64V192a64 64 0 0 1 64-64h256V64a64 64 0 0 1 64-64h160a64 64 0 0 1 64 64v64h288l192 192v64zM384 960h160V576h-160v384z m160-896h-160v64h160V64z m320 128H64v320h800l160-160z" /></svg>