<?xml version="1.0" standalone="no"?><!DOCTYPE svg PUBLIC "-//W3C//DTD SVG 1.1//EN" "http://www.w3.org/Graphics/SVG/1.1/DTD/svg11.dtd"><svg class="icon" width="128px" height="128.00px" viewBox="0 0 1024 1024" version="1.1" xmlns="http://www.w3.org/2000/svg"><path fill="#333333" d="M515.038 68.496c-98.858 1.251-59.037 75.835-346.991 77.109v443.378c0 191.637 302.412 366.268 346.991 366.268S862.029 780.62 862.029 588.983V145.605c-283.135 0.532-251.74-78.314-346.991-77.109zM823.474 590.24c0 153.941-286.85 326.258-308.437 326.457-21.492 0.199-307.232-173.721-308.437-326.457V195.055c255.96-1.135 220.563-67.613 308.437-68.727 84.668-1.074 56.76 69.202 308.437 68.727V590.24zM382.718 463.68c-7.528-7.528-19.734-7.528-27.262 0-7.528 7.528-7.528 19.734 0 27.262l122.681 122.681c7.528 7.528 19.734 7.528 27.262 0l207.774-207.774c7.528-7.528 7.528-19.734 0-27.262-7.528-7.528-19.734-7.528-27.262 0L491.768 572.73l-109.05-109.05z" /></svg>