<?xml version="1.0" standalone="no"?><!DOCTYPE svg PUBLIC "-//W3C//DTD SVG 1.1//EN" "http://www.w3.org/Graphics/SVG/1.1/DTD/svg11.dtd"><svg t="1598604785448" class="icon" viewBox="0 0 1024 1024" version="1.1" xmlns="http://www.w3.org/2000/svg" p-id="2358" xmlns:xlink="http://www.w3.org/1999/xlink" width="128" height="128"><defs><style type="text/css"></style></defs><path d="M400.896 261.156571l20.041143-100.205714A18.285714 18.285714 0 0 1 438.857143 146.285714h146.285714a18.285714 18.285714 0 0 1 17.92 14.701715l20.041143 100.169142c17.846857 7.899429 34.779429 17.700571 50.541714 29.220572l96.804572-32.768a18.285714 18.285714 0 0 1 21.686857 8.192l73.142857 126.683428a18.285714 18.285714 0 0 1-3.766857 22.893715l-76.763429 67.474285a277.211429 277.211429 0 0 1 0 58.294858l76.8 67.474285a18.285714 18.285714 0 0 1 3.730286 22.893715l-73.142857 126.683428a18.285714 18.285714 0 0 1-21.686857 8.192l-96.804572-32.768c-15.762286 11.52-32.694857 21.321143-50.541714 29.220572l-20.041143 100.205714A18.285714 18.285714 0 0 1 585.142857 877.714286h-146.285714a18.285714 18.285714 0 0 1-17.92-14.701715l-20.041143-100.169142a273.993143 273.993143 0 0 1-50.541714-29.220572l-96.804572 32.768a18.285714 18.285714 0 0 1-21.686857-8.192l-73.142857-126.683428a18.285714 18.285714 0 0 1 3.766857-22.893715l76.763429-67.474285a277.211429 277.211429 0 0 1 0-58.294858l-76.8-67.474285a18.285714 18.285714 0 0 1-3.730286-22.893715l73.142857-126.683428a18.285714 18.285714 0 0 1 21.686857-8.192l96.804572 32.768c15.762286-11.52 32.694857-21.321143 50.541714-29.220572zM603.428571 512a91.428571 91.428571 0 1 0-182.857142 0 91.428571 91.428571 0 0 0 182.857142 0z m36.571429 0a128 128 0 1 1-256 0 128 128 0 0 1 256 0z m-205.165714-234.166857a18.285714 18.285714 0 0 1-11.117715 13.385143 237.421714 237.421714 0 0 0-58.697142 33.938285 18.285714 18.285714 0 0 1-17.188572 2.962286l-91.794286-31.085714-58.148571 100.754286 72.777143 63.963428a18.285714 18.285714 0 0 1 6.034286 16.310857 239.908571 239.908571 0 0 0 0 67.876572 18.285714 18.285714 0 0 1-6.034286 16.310857l-72.777143 63.963428L256 726.930286l91.794286-31.085715a18.285714 18.285714 0 0 1 17.188571 2.998858 237.421714 237.421714 0 0 0 58.697143 33.938285 18.285714 18.285714 0 0 1 11.154286 13.385143L453.851429 841.142857h116.297142l19.017143-94.976a18.285714 18.285714 0 0 1 11.117715-13.385143 237.421714 237.421714 0 0 0 58.697142-33.938285 18.285714 18.285714 0 0 1 17.188572-2.962286l91.794286 31.085714 58.148571-100.754286-72.777143-63.963428a18.285714 18.285714 0 0 1-6.034286-16.310857 239.908571 239.908571 0 0 0 0-67.876572 18.285714 18.285714 0 0 1 6.034286-16.310857l72.777143-63.963428L768 297.069714l-91.794286 31.085715a18.285714 18.285714 0 0 1-17.188571-2.998858 237.421714 237.421714 0 0 0-58.697143-33.938285 18.285714 18.285714 0 0 1-11.154286-13.385143L570.148571 182.857143h-116.297142l-19.017143 94.976z" p-id="2359"></path></svg>