<?xml version="1.0" standalone="no"?><!DOCTYPE svg PUBLIC "-//W3C//DTD SVG 1.1//EN" "http://www.w3.org/Graphics/SVG/1.1/DTD/svg11.dtd"><svg class="icon" width="128px" height="117.34px" viewBox="0 0 1117 1024" version="1.1" xmlns="http://www.w3.org/2000/svg"><path fill="#333333" d="M897.536 979.549091h-18.432c-25.786182 0-49.431273-17.547636-58.693818-42.263273-4.189091-1.954909-9.402182-4.096-13.405091-6.097454a73.541818 73.541818 0 0 1-25.879273 5.026909c-16.663273 0.232727-32.628364-6.516364-44.125091-18.525091l-13.498182-13.312a63.860364 63.860364 0 0 1-13.312-70.050909c-2.094545-4.189091-4.142545-8.145455-6.23709-13.265455-25.832727-9.309091-44.264727-33.047273-44.264728-58.833454v-19.549091c0-25.739636 18.432-49.431273 43.240728-58.693818l6.144-12.427637s0-0.930909 1.11709-0.930909a69.818182 69.818182 0 0 1-5.12-25.832727c0-16.430545 6.190545-32.907636 18.478546-44.264727l13.498182-13.498182c11.543273-11.869091 27.461818-18.525091 44.078545-18.432 9.309091 0 17.687273 2.141091 25.879273 5.166545 4.049455-2.094545 9.262545-4.142545 12.334545-5.166545a63.208727 63.208727 0 0 1 58.693819-41.146182h18.52509c25.786182 0 49.431273 17.454545 58.740364 42.263273 4.096 1.954909 9.216 4.096 13.265455 6.144 8.098909-3.723636 16.989091-5.492364 25.925818-5.026909 16.430545 0 32.861091 6.050909 44.125091 18.385454l13.498182 13.405091c18.245818 18.432 23.505455 46.08 13.312 69.911273 2.141091 4.142545 4.189091 8.378182 6.190545 13.498182 24.576 9.122909 40.96 32.442182 41.192727 58.647272v18.525091c0 26.810182-17.454545 49.431273-42.263272 58.740364-2.001455 4.189091-4.096 9.309091-6.237091 13.405091 3.258182 8.238545 5.259636 16.430545 5.259636 25.786182 0 16.430545-6.237091 32.954182-18.525091 44.264727l-12.427636 12.381091c-11.589818 11.869091-27.508364 18.571636-44.125091 18.525091-9.402182 0-17.547636-2.048-25.925818-5.073455-4.142545 2.048-8.145455 4.142545-13.265455 6.097455a61.905455 61.905455 0 0 1-57.716364 42.216727M814.545455 883.525818c1.768727 0 4.654545 0.930909 6.516363 1.768727l5.632 2.792728c5.538909 2.885818 11.170909 5.585455 15.825455 7.540363 4.654545 1.768727 8.424727 5.585455 9.355636 10.193455a29.556364 29.556364 0 0 0 27.927273 24.203636h16.849454a29.556364 29.556364 0 0 0 27.927273-24.203636 14.661818 14.661818 0 0 1 9.309091-10.24c6.562909-1.861818 13.963636-5.585455 21.410909-9.355636a15.266909 15.266909 0 0 1 14.056727 0.930909c9.309091 6.516364 26.065455 5.632 35.421091-4.654546l12.101818-12.194909a28.439273 28.439273 0 0 0 8.471273-20.433454 33.186909 33.186909 0 0 0-4.654545-15.965091c-2.792727-3.584-2.792727-9.169455-0.977455-13.870546l1.861818-2.746182c2.792727-6.562909 6.516364-13.125818 8.378182-18.711272a14.894545 14.894545 0 0 1 10.24-9.309091 29.789091 29.789091 0 0 0 23.272727-27.927273v-17.687273a29.649455 29.649455 0 0 0-23.272727-28.020363 14.522182 14.522182 0 0 1-10.24-9.402182c-2.792727-7.447273-5.585455-14.894545-9.309091-21.364364a14.894545 14.894545 0 0 1 0.930909-14.056727 29.556364 29.556364 0 0 0-3.770181-36.305455l-13.032728-12.101818c-9.402182-9.402182-25.134545-11.170909-35.374545-3.723636a15.127273 15.127273 0 0 1-14.103273 0.837818 94.301091 94.301091 0 0 0-21.410909-9.309091 14.987636 14.987636 0 0 1-9.309091-10.24 29.696 29.696 0 0 0-27.927273-23.272727h-16.849454a29.556364 29.556364 0 0 0-27.927273 23.272727 14.708364 14.708364 0 0 1-9.309091 10.24c-6.516364 1.861818-13.079273 4.654545-21.504 9.309091a14.801455 14.801455 0 0 1-13.963636-0.884364c-10.24-7.447273-26.065455-5.632-36.352 3.723637l-12.194909 12.194909a28.858182 28.858182 0 0 0-3.677091 36.305454c2.792727 3.863273 2.792727 9.448727 0.930909 14.010182-1.861818 2.839273-2.792727 5.678545-4.608 8.424727-2.699636 4.002909-4.887273 8.378182-6.516364 12.939637a15.034182 15.034182 0 0 1-10.286545 9.402182c-12.148364 2.699636-25.134545 13.963636-25.134546 27.973818v16.756363c0 13.963636 12.986182 25.181091 25.134546 27.927273 4.654545 0.930909 8.378182 4.654545 10.333091 9.402182 1.768727 5.538909 4.514909 11.264 7.447272 16.756364l2.699637 4.561454a15.173818 15.173818 0 0 1-0.930909 14.103273 28.718545 28.718545 0 0 0 4.561454 36.352l12.148364 12.101818c9.774545 9.541818 24.855273 11.077818 36.398545 3.723636a18.804364 18.804364 0 0 1 7.493819-1.768727M886.225455 831.441455a77.544727 77.544727 0 0 1-77.824-77.963637c0-43.240727 34.443636-77.870545 77.824-77.870545 43.380364 0 77.870545 34.583273 77.870545 77.870545 0 42.542545-35.374545 77.963636-77.870545 77.963637z m0-123.671273a45.056 45.056 0 0 0-44.869819 44.916363c0 24.715636 20.200727 44.962909 44.869819 44.96291 24.715636 0 44.962909-20.247273 44.962909-44.96291a45.102545 45.102545 0 0 0-44.962909-44.916363z m-369.105455-206.894546A246.085818 246.085818 0 0 1 271.220364 255.069091 246.085818 246.085818 0 0 1 517.073455 9.262545a246.132364 246.132364 0 0 1 245.899636 245.806546 246.225455 246.225455 0 0 1-245.899636 245.806545z m0-432.081454a186.414545 186.414545 0 0 0-186.274909 186.181818A186.414545 186.414545 0 0 0 517.12 441.250909a186.414545 186.414545 0 0 0 186.228364-186.228364 186.414545 186.414545 0 0 0-186.181819-186.228363zM62.045091 988.392727c-0.651636-9.448727-14.801455-232.680727 125.021091-382.743272 80.197818-86.016 193.629091-129.675636 337.454545-129.675637 226.024727 0 275.549091 93.742545 280.389818 104.354909L750.685091 605.090909c-0.046545 0-39.377455-69.445818-226.210909-69.445818-126.324364 0-225.093818 37.143273-293.515637 110.312727-122.135273 130.792727-109.568 336.197818-109.521454 338.245818l-59.392 4.189091z m5.585454-293.934545H8.052364c0-86.341818 105.565091-189.812364 194.094545-261.445818 1.861818-1.442909 0.698182-4.747636-0.465454-6.423273-130.699636-190.836364 26.065455-366.173091 27.74109-367.941818l43.985455 40.168727c-5.166545 5.771636-126.277818 142.708364-22.528 294.120727 19.409455 28.532364 14.522182 65.629091-11.310545 86.481455-106.030545 85.736727-171.938909 168.122182-171.93891 215.04z" /></svg>